<?xml version="1.0" encoding="UTF-8"?>
<svg version="1.1" xmlns="http://www.w3.org/2000/svg" width="383" height="318">
<path d="M0 0 C126.39 0 252.78 0 383 0 C383 104.94 383 209.88 383 318 C256.61 318 130.22 318 0 318 C0 213.06 0 108.12 0 0 Z " fill="#1C3236" transform="translate(0,0)"/>
<path d="M0 0 C3.3 0 6.6 0 10 0 C10 18.48 10 36.96 10 56 C93.16 55.505 93.16 55.505 178 55 C178.33 36.85 178.66 18.7 179 0 C182.3 0 185.6 0 189 0 C189 21.45 189 42.9 189 65 C164.65276888 65.02254951 140.30554617 65.04098064 115.95830727 65.05181217 C104.65416719 65.0569745 93.35003406 65.06401599 82.04589844 65.07543945 C72.19637878 65.08538822 62.34686415 65.09185389 52.49733961 65.09408849 C47.27925265 65.09539527 42.06118005 65.09847906 36.84309769 65.10573006 C31.93648818 65.1124933 27.02989902 65.11461633 22.12328529 65.11310768 C20.31806007 65.11338387 18.5128342 65.1153872 16.70761299 65.11920547 C14.25163399 65.12414745 11.79573283 65.1229964 9.3397522 65.12025452 C8.61797055 65.12316736 7.8961889 65.1260802 7.15253508 65.12908131 C2.22824242 65.11412121 2.22824242 65.11412121 0 64 C0 42.88 0 21.76 0 0 Z " fill="#465276" transform="translate(96,221)"/>
<path d="M0 0 C0.7178907 0.00582568 1.4357814 0.01165137 2.17542636 0.01765358 C3.31730075 0.01509031 3.31730075 0.01509031 4.4822433 0.01247525 C7.04655889 0.00916712 9.61061587 0.02020565 12.17490757 0.03111184 C14.00769152 0.03167567 15.84047593 0.03135995 17.67325962 0.03022683 C22.6606247 0.02965121 27.64789428 0.04143929 32.6352371 0.05537474 C37.84294423 0.06784732 43.05065337 0.06904985 48.25837314 0.07142556 C58.12521623 0.07765057 67.99201518 0.09407515 77.8588388 0.11412454 C89.08962059 0.13645183 100.32040445 0.14746898 111.55120289 0.15751541 C134.6587114 0.17844053 157.76615939 0.21512947 180.87363803 0.25816262 C180.87363803 23.68816262 180.87363803 47.11816262 180.87363803 71.25816262 C177.57363803 71.25816262 174.27363803 71.25816262 170.87363803 71.25816262 C170.87363803 50.79816262 170.87363803 30.33816262 170.87363803 9.25816262 C114.77363803 9.25816262 58.67363803 9.25816262 0.87363803 9.25816262 C0.87363803 29.71816262 0.87363803 50.17816262 0.87363803 71.25816262 C-1.76636197 71.25816262 -4.40636197 71.25816262 -7.12636197 71.25816262 C-7.17264346 62.29623867 -7.20820977 53.33435567 -7.22998631 44.37233841 C-7.24043642 40.21119009 -7.25461788 36.05012335 -7.27724087 31.88902199 C-7.29892567 27.87549833 -7.31092134 23.86205328 -7.31611645 19.84847558 C-7.31982008 18.31501826 -7.32705208 16.78156538 -7.33782208 15.24814141 C-7.35227926 13.10506461 -7.35434237 10.96231526 -7.35341275 8.81919777 C-7.35785397 7.59786141 -7.36229519 6.37652504 -7.366871 5.11817849 C-6.93798362 0.01805937 -4.56931537 0.02791169 0 0 Z " fill="#4A87B5" transform="translate(104.12636196613312,35.74183738231659)"/>
<path d="M0 0 C5.28 0 10.56 0 16 0 C19.44654257 8.00487306 22.60591563 16.09851251 25.6875 24.25 C26.07993896 25.27931641 26.47237793 26.30863281 26.87670898 27.36914062 C28.94291903 32.86955265 30.717093 38.26465108 32 44 C32.15130371 43.31502441 32.30260742 42.63004883 32.45849609 41.92431641 C34.51425126 33.14116428 37.4674684 24.80258273 40.625 16.375 C41.13336471 15.00150634 41.64118034 13.62780933 42.1484375 12.25390625 C45.79677926 2.40644147 45.79677926 2.40644147 47 0 C51.95 0 56.9 0 62 0 C62 20.79 62 41.58 62 63 C58.37 63 54.74 63 51 63 C50.67 48.15 50.34 33.3 50 18 C46.88571589 27.42147141 46.88571589 27.42147141 43.77832031 36.84521484 C41.40504862 43.99496135 38.89765147 51.04340014 36 58 C35.33130939 59.66585566 34.66414648 61.33232747 34 63 C31.69 63 29.38 63 27 63 C26.59910156 61.906875 26.19820312 60.81375 25.78515625 59.6875 C20.91745749 46.43533174 15.96549308 33.21585082 11 20 C10.67 34.19 10.34 48.38 10 63 C7.03 63 4.06 63 1 63 C0.67 42.21 0.34 21.42 0 0 Z " fill="#52CDDC" transform="translate(21,131)"/>
<path d="M0 0 C3.63 0 7.26 0 11 0 C11.02505615 1.79139404 11.0501123 3.58278809 11.07592773 5.4284668 C11.15991732 11.3557139 11.24817948 17.28288455 11.33933926 23.21002483 C11.39443855 26.80266543 11.44783721 30.39531434 11.49731445 33.98803711 C11.54515039 37.45699185 11.5974991 40.92585214 11.65294075 44.39469337 C11.68315603 46.35827285 11.70873098 48.32192195 11.73423767 50.28556824 C11.7641555 52.08686943 11.7641555 52.08686943 11.79467773 53.92456055 C11.81799416 55.50674629 11.81799416 55.50674629 11.84178162 57.12089539 C11.99139483 59.84341155 12.39029702 62.34640658 13 65 C8.05 65.495 8.05 65.495 3 66 C2.34 64.68 1.68 63.36 1 62 C0.4225 62.474375 -0.155 62.94875 -0.75 63.4375 C-5.2568471 66.56725493 -10.6704076 66.66735766 -16 66 C-21.97358801 62.95685139 -25.44702263 58.92160619 -27.75 52.6875 C-30.01691308 45.09772472 -29.39393953 39.45677434 -26.26953125 32.26953125 C-23.92011496 28.06949783 -20.85217164 26.05123255 -16.6875 23.6875 C-10.21428103 22.03156026 -5.32945997 22.89018001 1 25 C0.505 12.625 0.505 12.625 0 0 Z " fill="#3198C8" transform="translate(183,128)"/>
<path d="M0 0 C-1.2748209 2.84383123 -2.45137078 5.13754018 -5 7 C-7.72978847 6.80501511 -9.61674984 5.68533172 -12.0625 4.4375 C-17.9180612 1.87569198 -24.3975659 2.13252197 -30.375 4.125 C-35.44958957 7.74970684 -38.74930564 11.86022767 -40 18 C-40.74332942 27.27834398 -39.85906677 36.40491345 -34 44 C-29.8126126 47.6888889 -26.60015314 48.58910951 -21.18359375 48.32421875 C-17.96691826 47.84660862 -15.67604248 46.82754121 -13 45 C-11.21109723 42.10783664 -10.67183299 39.61410725 -10.375 36.25 C-10.189375 34.14625 -10.189375 34.14625 -10 32 C-14.29 32 -18.58 32 -23 32 C-22.67 29.36 -22.34 26.72 -22 24 C-14.08 24 -6.16 24 2 24 C2 34.89 2 45.78 2 57 C0.02 57 -1.96 57 -4 57 C-4.99 55.02 -5.98 53.04 -7 51 C-8.299375 51.928125 -8.299375 51.928125 -9.625 52.875 C-17.13005872 57.60040734 -24.86870727 58.12596271 -33.53125 56.53515625 C-40.05378528 54.64764176 -44.94716675 51.3664338 -48.5078125 45.52734375 C-53.60306338 35.64255704 -55.10676157 23.8549168 -51.875 13 C-48.67549702 5.20214157 -43.6403774 -0.41902615 -36 -4 C-24.55761214 -8.48767163 -10.18337649 -6.6099371 0 0 Z " fill="#2483C0" transform="translate(253,137)"/>
<path d="M0 0 C2.64 0 5.28 0 8 0 C8 11.22 8 22.44 8 34 C40.34 34 72.68 34 106 34 C106 23.11 106 12.22 106 1 C108.97 1 111.94 1 115 1 C115 14.86 115 28.72 115 43 C77.05 43 39.1 43 0 43 C0 28.81 0 14.62 0 0 Z " fill="#475378" transform="translate(144,221)"/>
<path d="M0 0 C31.68 0 63.36 0 96 0 C96 15.51 96 31.02 96 47 C93.03 47 90.06 47 87 47 C87 34.46 87 21.92 87 9 C73.14 9 59.28 9 45 9 C45 17.91 45 26.82 45 36 C42.69 36 40.38 36 38 36 C36.55219885 31.65659654 36.98138221 27.48125999 37.0625 22.93359375 C36.98849917 18.27616652 36.46348982 13.63489825 36 9 C24.12 8.67 12.24 8.34 0 8 C0 5.36 0 2.72 0 0 Z " fill="#4D94CB" transform="translate(163,60)"/>
<path d="M0 0 C3.95426413 4.05832371 6.28820981 7.9126341 6.25 13.625 C6.25773437 14.78902344 6.25773437 14.78902344 6.265625 15.9765625 C6 18 6 18 4 20 C1.47802734 20.22705078 1.47802734 20.22705078 -1.6640625 20.1953125 C-2.78554688 20.18886719 -3.90703125 20.18242187 -5.0625 20.17578125 C-6.238125 20.15902344 -7.41375 20.14226562 -8.625 20.125 C-9.80835938 20.11597656 -10.99171875 20.10695312 -12.2109375 20.09765625 C-15.14082523 20.07402812 -18.0703134 20.04108514 -21 20 C-20.54196488 21.29362958 -20.07711288 22.58484693 -19.609375 23.875 C-19.35124023 24.59429687 -19.09310547 25.31359375 -18.82714844 26.0546875 C-17.68177182 28.74841859 -16.68204233 29.80798119 -14 31 C-8.64979111 31.59446765 -5.68201395 30.44741638 -1 28 C2 29 2 29 3.6875 32.0625 C4.120625 33.031875 4.55375 34.00125 5 35 C-0.77635596 39.88768581 -6.67859989 40.4582 -14.02734375 40.3125 C-19.84374637 39.70105163 -24.00274113 37.4061643 -27.875 33.0625 C-32.20391662 26.82376722 -32.67801843 21.43734057 -32 14 C-30.57094619 7.81438753 -27.77464571 2.942252 -22.5 -0.75 C-15.21591294 -4.39204353 -7.0813339 -3.96554698 0 0 Z " fill="#0651AD" transform="translate(359,154)"/>
<path d="M0 0 C3.16625684 3.27386392 3.40617062 5.82163418 3.51171875 10.296875 C3.54716797 11.50214844 3.58261719 12.70742187 3.61914062 13.94921875 C3.65297852 15.83060547 3.65297852 15.83060547 3.6875 17.75 C3.72166016 19.01972656 3.75582031 20.28945312 3.79101562 21.59765625 C3.87349001 24.73168274 3.94264484 27.86542955 4 31 C5.98 31 7.96 31 10 31 C10.495 34.465 10.495 34.465 11 38 C6.86763795 40.00356948 3.57438521 40.4901127 -1 40 C-3.9375 38 -3.9375 38 -6 36 C-6.5775 36.474375 -7.155 36.94875 -7.75 37.4375 C-12.0766393 40.44211062 -16.82648624 40.57712504 -22 40 C-25.64207936 38.38129806 -28.16648143 36.57053617 -30 33 C-30.58416432 29.04066405 -30.83093404 26.58632862 -28.96875 23.03125 C-25.24467714 18.14857669 -20.97597325 16.08471447 -15 15 C-12.27385921 14.80107762 -9.73883023 14.85060926 -7 15 C-7.12375 13.700625 -7.2475 12.40125 -7.375 11.0625 C-7.44460938 10.33160156 -7.51421875 9.60070312 -7.5859375 8.84765625 C-7.72257812 8.23792969 -7.85921875 7.62820312 -8 7 C-11.07990345 5.46004827 -13.58742761 5.77622476 -17 6 C-19.46754057 6.82251352 -21.65456147 7.85121378 -24 9 C-25.98 5.535 -25.98 5.535 -28 2 C-18.91858806 -3.41391865 -9.69528555 -5.54016317 0 0 Z " fill="#166DB7" transform="translate(290,154)"/>
<path d="M0 0 C0 1.32 0 2.64 0 4 C0.556875 3.6390625 1.11375 3.278125 1.6875 2.90625 C7.14086619 -0.4099862 10.61823241 -1.83695313 17 -1 C20.82013569 0.29740457 22.49067832 1.19241194 24.6496582 4.61572266 C26.21086104 8.52846786 26.38288164 11.88463753 26.29296875 16.0234375 C26.28872391 16.76961334 26.28447906 17.51578918 26.28010559 18.28457642 C26.26342382 20.64843098 26.22579339 23.01140676 26.1875 25.375 C26.17243949 26.9856647 26.15875348 28.59634287 26.14648438 30.20703125 C26.11355504 34.13835515 26.06184762 38.06902901 26 42 C22.7 42 19.4 42 16 42 C15.98018066 41.04109863 15.96036133 40.08219727 15.93994141 39.09423828 C15.86395855 35.54188447 15.7752307 31.98994424 15.68261719 28.43798828 C15.64429699 26.89965979 15.60944944 25.36124075 15.578125 23.82275391 C15.53253941 21.61327724 15.4745366 19.40442552 15.4140625 17.1953125 C15.40251129 16.50567413 15.39096008 15.81603577 15.37905884 15.10549927 C15.35048978 11.1079846 15.35048978 11.1079846 13 8 C7.11989487 8.34523398 7.11989487 8.34523398 2 11 C1.48745872 14.2001106 1.48745872 14.2001106 1.48828125 17.9765625 C1.47033005 18.66181 1.45237885 19.3470575 1.43388367 20.05307007 C1.37966292 22.24365059 1.34584947 24.4340119 1.3125 26.625 C1.27933706 28.10940559 1.24484835 29.59378221 1.20898438 31.078125 C1.12393185 34.71853912 1.05717644 38.35902944 1 42 C-2.3 42 -5.6 42 -9 42 C-9.02505615 40.90534424 -9.0501123 39.81068848 -9.07592773 38.68286133 C-9.17030008 34.61064517 -9.27044731 30.53858774 -9.37231445 26.46655273 C-9.41555069 24.70617392 -9.4572335 22.94575622 -9.49731445 21.18530273 C-9.55529185 18.65075987 -9.61890627 16.11641066 -9.68359375 13.58203125 C-9.70030624 12.79850784 -9.71701874 12.01498444 -9.73423767 11.2077179 C-9.83770807 7.3667745 -10.08578184 3.73820878 -11 0 C-3.57142857 -1.28571429 -3.57142857 -1.28571429 0 0 Z " fill="#3EADD1" transform="translate(122,152)"/>
<path d="M0 0 C3.3 0 6.6 0 10 0 C10 6.6 10 13.2 10 20 C-13.43 20 -36.86 20 -61 20 C-61 13.73 -61 7.46 -61 1 C-58.03 1 -55.06 1 -52 1 C-52 4.3 -52 7.6 -52 11 C-43.42 11 -34.84 11 -26 11 C-26 7.7 -26 4.4 -26 1 C-23.03 1 -20.06 1 -17 1 C-17 4.3 -17 7.6 -17 11 C-11.39 11 -5.78 11 0 11 C0 7.37 0 3.74 0 0 Z " fill="#465376" transform="translate(226,221)"/>
<path d="M0 0 C45.21 0 90.42 0 137 0 C137 0.33 137 0.66 137 1 C105.32 1 73.64 1 41 1 C41 3.64 41 6.28 41 9 C52.88 9 64.76 9 77 9 C77 9.33 77 9.66 77 10 C54.56 10 32.12 10 9 10 C9 22.54 9 35.08 9 48 C6.03 48 3.06 48 0 48 C0 32.16 0 16.32 0 0 Z " fill="#405670" transform="translate(122,59)"/>
<path d="M0 0 C2.31 0 4.62 0 7 0 C6.67 3.96 6.34 7.92 6 12 C9.3 12 12.6 12 16 12 C15.67 14.31 15.34 16.62 15 19 C12.03 19 9.06 19 6 19 C6.13811922 23.31278385 6.28678109 27.62513953 6.4375 31.9375 C6.47681641 33.16919922 6.51613281 34.40089844 6.55664062 35.66992188 C6.59853516 36.83974609 6.64042969 38.00957031 6.68359375 39.21484375 C6.72025146 40.29886475 6.75690918 41.38288574 6.79467773 42.49975586 C6.72364265 44.939263 6.72364265 44.939263 8 46 C10.67058851 46.14115161 13.32432238 46.04247107 16 46 C16 48.31 16 50.62 16 53 C11.03458454 54.98616619 7.27277731 55.41847439 2 55 C-2.56944444 52.86111111 -2.56944444 52.86111111 -4 50 C-4.08586809 47.67583704 -4.10711043 45.34916693 -4.09765625 43.0234375 C-4.0962413 42.33819 -4.09482635 41.6529425 -4.09336853 40.94692993 C-4.08776675 38.75624239 -4.07521406 36.5656567 -4.0625 34.375 C-4.05748522 32.89062648 -4.05292228 31.40625135 -4.04882812 29.921875 C-4.03779677 26.28121685 -4.02053099 22.64061836 -4 19 C-6.31 19 -8.62 19 -11 19 C-11 17.02 -11 15.04 -11 13 C-9.39125 12.2884375 -9.39125 12.2884375 -7.75 11.5625 C-3.03843394 8.93434449 -1.69220719 4.91896252 0 0 Z " fill="#0E5FB3" transform="translate(310,139)"/>
<path d="M0 0 C13.53 0 27.06 0 41 0 C41 2.97 41 5.94 41 9 C30.11 9 19.22 9 8 9 C8 14.61 8 20.22 8 26 C5.36 26 2.72 26 0 26 C0 17.42 0 8.84 0 0 Z " fill="#3C4F65" transform="translate(144,81)"/>
<path d="M0 0 C3.63 0 7.26 0 11 0 C11 14.19 11 28.38 11 43 C7.7 43 4.4 43 1 43 C0.67 28.81 0.34 14.62 0 0 Z " fill="#46BBD6" transform="translate(91,151)"/>
<path d="M0 0 C2.69990662 1.79993774 4.5418865 3.083773 6 6 C6.15071519 8.82590981 6.23132601 11.61072462 6.25 14.4375 C6.270625 15.21416016 6.29125 15.99082031 6.3125 16.79101562 C6.35230907 22.56830692 6.35230907 22.56830692 4.60986328 24.70336914 C1.54245072 27.17395272 -2.17350004 27.34908421 -6 27 C-9.32375203 24.50718598 -10.68934755 22.93195734 -12 19 C-12.17066284 16.87930439 -12.2662598 14.75204902 -12.3125 12.625 C-12.34988281 11.50351563 -12.38726562 10.38203125 -12.42578125 9.2265625 C-11.91371636 5.34614414 -10.70908823 3.76437575 -8 1 C-5.14675563 -0.42662219 -3.16545451 -0.31033868 0 0 Z " fill="#1C3539" transform="translate(178,159)"/>
<path d="M0 0 C0.33 0 0.66 0 1 0 C1.16950701 2.83318859 1.33567534 5.66650988 1.5 8.5 C1.54769531 9.29148437 1.59539062 10.08296875 1.64453125 10.8984375 C1.93392637 15.942181 2.04634887 20.94797268 2 26 C4.31 26.33 6.62 26.66 9 27 C9 18.09 9 9.18 9 0 C9.33 0 9.66 0 10 0 C10 12.54 10 25.08 10 38 C-4.52 38 -19.04 38 -34 38 C-34 35.69 -34 33.38 -34 31 C-22.78 31 -11.56 31 0 31 C0 20.77 0 10.54 0 0 Z " fill="#394C60" transform="translate(199,69)"/>
<path d="M0 0 C2.97 0 5.94 0 9 0 C9 11.22 9 22.44 9 34 C9.66 34 10.32 34 11 34 C11 36.97 11 39.94 11 43 C7.37 43 3.74 43 0 43 C0 28.81 0 14.62 0 0 Z " fill="#475378" transform="translate(122,221)"/>
<path d="M0 0 C0.33 0 0.66 0 1 0 C1.02314652 7.52771157 1.04092691 15.05541947 1.05181217 22.58315849 C1.05703593 26.07840098 1.06412441 29.57361916 1.07543945 33.06884766 C1.08835974 37.08496334 1.0932324 41.1010534 1.09765625 45.1171875 C1.10281754 46.37554413 1.10797882 47.63390076 1.11329651 48.9303894 C1.11337204 50.09144196 1.11344757 51.25249451 1.11352539 52.44873047 C1.115746 53.47465302 1.11796661 54.50057556 1.12025452 55.55758667 C1 58 1 58 0 60 C-2.31 60 -4.62 60 -7 60 C-7 45.81 -7 31.62 -7 17 C-5.02 17 -3.04 17 -1 17 C-1.01160156 15.85660156 -1.02320313 14.71320312 -1.03515625 13.53515625 C-1.04453288 12.04427246 -1.05363321 10.55338691 -1.0625 9.0625 C-1.07087891 8.30775391 -1.07925781 7.55300781 -1.08789062 6.77539062 C-1.09652441 4.85005687 -1.05224333 2.92464419 -1 1 C-0.67 0.67 -0.34 0.34 0 0 Z " fill="#46ADEE" transform="translate(283,46)"/>
<path d="M0 0 C0.72858544 0.00291284 1.45717088 0.00582568 2.20783466 0.00882679 C2.97639693 0.00797237 3.7449592 0.00711794 4.53681123 0.00623763 C7.13180097 0.0045805 9.72672715 0.01010797 12.321711 0.01555592 C14.17405169 0.01583777 16.02639248 0.0156801 17.8787331 0.01511341 C22.92397722 0.01482534 27.96919779 0.02072358 33.01443642 0.02768737 C38.28087681 0.03391936 43.54731767 0.03452458 48.81376117 0.03571278 C58.79395269 0.03882655 68.77413332 0.04704056 78.75432003 0.05706227 C90.11325501 0.06822197 101.47219051 0.0737335 112.83112961 0.0787577 C136.20421683 0.08922314 159.57729436 0.10682347 182.95037311 0.12908131 C182.95037311 0.45908131 182.95037311 0.78908131 182.95037311 1.12908131 C181.51386449 1.13542922 181.51386449 1.13542922 180.04833549 1.14190537 C156.78153467 1.24494783 133.51476577 1.3536765 110.24801964 1.46842057 C98.99655249 1.52377654 87.74508218 1.57726236 76.493586 1.62639576 C66.69056778 1.66920859 56.88757312 1.71547913 47.08459127 1.76595986 C41.89058327 1.79258425 36.69658002 1.81743782 31.50254482 1.83815533 C26.61971798 1.85768603 21.7369361 1.8818189 16.85414928 1.90957218 C15.0565762 1.91896159 13.25899323 1.92663001 11.46140522 1.93250042 C9.01818926 1.94072966 6.5750834 1.95499703 4.13190693 1.97086293 C3.05070161 1.97233009 3.05070161 1.97233009 1.94765377 1.97382689 C-1.33311618 1.72073078 -1.33311618 1.72073078 -4.04962689 3.12908131 C-4.13327427 5.20496817 -4.14591983 7.28373823 -4.131414 9.36125904 C-4.12834744 10.01168171 -4.12528088 10.66210438 -4.12212139 11.33223683 C-4.11495143 12.74877281 -4.10555378 14.16529883 -4.09422642 15.58180767 C-4.07690336 17.82137289 -4.0665586 20.06086742 -4.05830914 22.30048329 C-4.03379444 28.6696056 -3.99824405 35.03863283 -3.95367962 41.40764576 C-3.92694086 45.29911438 -3.90986867 49.19052765 -3.89881092 53.08207089 C-3.89258847 54.56808793 -3.88256748 56.05409396 -3.86873204 57.54005963 C-3.84957869 59.61594799 -3.84262866 61.69154442 -3.83844525 63.76750904 C-3.83098782 64.95029942 -3.82353039 66.13308979 -3.81584698 67.3517223 C-4.04962689 70.12908131 -4.04962689 70.12908131 -6.04962689 72.12908131 C-6.07275213 62.88910579 -6.0905429 53.64914017 -6.10143906 44.40914208 C-6.10666749 40.11908216 -6.11376441 35.82904198 -6.12506634 31.53899342 C-6.13589664 27.40228731 -6.14190402 23.26560023 -6.14450413 19.12888104 C-6.14635812 17.54715827 -6.14997825 15.9654366 -6.15535694 14.38372189 C-6.16256928 12.17585293 -6.16361775 9.96806358 -6.16315228 7.76018482 C-6.16537289 6.50109806 -6.1675935 5.2420113 -6.1698814 3.9447704 C-5.96789089 -0.78471924 -4.26603599 0.01293086 0 0 Z " fill="#274553" transform="translate(102.04962688684464,34.870918691158295)"/>
<path d="M0 0 C3.3 0 6.6 0 10 0 C10 8.58 10 17.16 10 26 C6.7 26 3.4 26 0 26 C0 17.42 0 8.84 0 0 Z " fill="#508ABC" transform="translate(226,81)"/>
<path d="M0 0 C0.33 0 0.66 0 1 0 C1.16950701 2.83318859 1.33567534 5.66650988 1.5 8.5 C1.54769531 9.29148437 1.59539062 10.08296875 1.64453125 10.8984375 C1.93392637 15.942181 2.04634887 20.94797268 2 26 C4.31 26.33 6.62 26.66 9 27 C9 18.09 9 9.18 9 0 C9.33 0 9.66 0 10 0 C10 12.54 10 25.08 10 38 C7.36 38 4.72 38 2 38 C2 36.35 2 34.7 2 33 C1.01 33 0.02 33 -1 33 C-0.67 22.11 -0.34 11.22 0 0 Z " fill="#486384" transform="translate(199,69)"/>
<path d="M0 0 C0.33 0 0.66 0 1 0 C1 12.54 1 25.08 1 38 C0.01 38.495 0.01 38.495 -1 39 C-1 35.37 -1 31.74 -1 28 C-2.65 28.33 -4.3 28.66 -6 29 C-7 28 -7 28 -7.09765625 25.49609375 C-7.08605469 24.48675781 -7.07445312 23.47742188 -7.0625 22.4375 C-7.05347656 21.42558594 -7.04445313 20.41367188 -7.03515625 19.37109375 C-7.02355469 18.58863281 -7.01195312 17.80617188 -7 17 C-5.02 17 -3.04 17 -1 17 C-1.01160156 15.85660156 -1.02320313 14.71320312 -1.03515625 13.53515625 C-1.04453288 12.04427246 -1.05363321 10.55338691 -1.0625 9.0625 C-1.07087891 8.30775391 -1.07925781 7.55300781 -1.08789062 6.77539062 C-1.09652441 4.85005687 -1.05224333 2.92464419 -1 1 C-0.67 0.67 -0.34 0.34 0 0 Z " fill="#4DBBFD" transform="translate(283,46)"/>
<path d="M0 0 C2.7912125 1.98322993 3.82597224 3.12986121 4.5 6.5 C4 9 4 9 2.4375 11.375 C0 13 0 13 -3.625 12.875 C-7 12 -7 12 -9 10 C-9.55021834 3.94759825 -9.55021834 3.94759825 -7.875 1.0625 C-5.06487736 -0.52990283 -3.17235276 -0.45319325 0 0 Z " fill="#45B7D1" transform="translate(100,128)"/>
<path d="M0 0 C3.3 0 6.6 0 10 0 C10 8.58 10 17.16 10 26 C6.7 26 3.4 26 0 26 C0 17.42 0 8.84 0 0 Z M1 1 C0.97310551 3.95839355 0.95321259 6.91654427 0.9375 9.875 C0.92912109 10.71675781 0.92074219 11.55851562 0.91210938 12.42578125 C0.90888672 13.23144531 0.90566406 14.03710938 0.90234375 14.8671875 C0.89710693 15.61081543 0.89187012 16.35444336 0.88647461 17.12060547 C0.88213364 19.09132568 0.88213364 19.09132568 2 21 C4.31 21 6.62 21 9 21 C9 14.4 9 7.8 9 1 C6.36 1 3.72 1 1 1 Z " fill="#497299" transform="translate(226,81)"/>
<path d="M0 0 C2.375 1.1875 2.375 1.1875 4 3 C4 4.65 4 6.3 4 8 C-1.28 8 -6.56 8 -12 8 C-9.36525573 1.41313933 -7.26660122 -0.90832515 0 0 Z " fill="#1A333A" transform="translate(350,159)"/>
<path d="M0 0 C0.99 0 1.98 0 3 0 C3 0.66 3 1.32 3 2 C8.1693489 1.59443869 8.1693489 1.59443869 13 0 C13 0.66 13 1.32 13 2 C13.66 2 14.32 2 15 2 C15 1.34 15 0.68 15 0 C18.63 0.66 22.26 1.32 26 2 C26.33 1.34 26.66 0.68 27 0 C27.66 0.33 28.32 0.66 29 1 C30.86259608 1.09678195 32.72864231 1.13075842 34.59375 1.1328125 C35.70621094 1.13410156 36.81867188 1.13539062 37.96484375 1.13671875 C39.13144531 1.13285156 40.29804688 1.12898438 41.5 1.125 C42.66660156 1.12886719 43.83320313 1.13273437 45.03515625 1.13671875 C46.70384766 1.13478516 46.70384766 1.13478516 48.40625 1.1328125 C49.43041016 1.13168457 50.45457031 1.13055664 51.50976562 1.12939453 C54.00045289 1.16652296 54.00045289 1.16652296 56 0 C56 0.66 56 1.32 56 2 C56.99 2 57.98 2 59 2 C59 1.34 59 0.68 59 0 C59.66 0 60.32 0 61 0 C61 0.66 61 1.32 61 2 C61.99 2.33 62.98 2.66 64 3 C41.56 3 19.12 3 -4 3 C-2.68 2.67 -1.36 2.34 0 2 C0 1.34 0 0.68 0 0 Z " fill="#48B5F6" transform="translate(190,42)"/>
<path d="M0 0 C30.69 0 61.38 0 93 0 C93 1.32 93 2.64 93 4 C92.01 3.67 91.02 3.34 90 3 C90 2.67 90 2.34 90 2 C88.90603157 2.00333092 88.90603157 2.00333092 87.78996277 2.00672913 C80.77877497 2.02710702 73.7675981 2.04215941 66.75638866 2.05181217 C63.15536889 2.05694213 59.55437437 2.06384958 55.95336914 2.07543945 C37.27369959 2.13399694 18.66385442 1.86828645 0 1 C0 0.67 0 0.34 0 0 Z " fill="#40A8E4" transform="translate(191,36)"/>
<path d="M0 0 C2.31 0 4.62 0 7 0 C7 8.25 7 16.5 7 25 C5.68 25.33 4.36 25.66 3 26 C2.97299325 23.08327116 2.95315763 20.16679323 2.9375 17.25 C2.92912109 16.425 2.92074219 15.6 2.91210938 14.75 C2.90888672 13.95078125 2.90566406 13.1515625 2.90234375 12.328125 C2.89710693 11.5949707 2.89187012 10.86181641 2.88647461 10.10644531 C3.0024891 7.9538151 3.40926729 6.0685865 4 4 C2.68 3.34 1.36 2.68 0 2 C0 1.34 0 0.68 0 0 Z " fill="#3CA8E7" transform="translate(252,60)"/>
<path d="M0 0 C-0.48529412 6.43014706 -0.48529412 6.43014706 -2.75 8.9375 C-5.41086144 10.1940179 -7.09053036 10.38282495 -10 10 C-12 8 -12 8 -12.4375 5.5625 C-12 3 -12 3 -9.9375 1.1875 C-6.4483377 -0.22301242 -3.7303242 -0.21943084 0 0 Z " fill="#1B353A" transform="translate(283,176)"/>
<path d="M0 0 C0.33 0 0.66 0 1 0 C1 15.18 1 30.36 1 46 C0.67 46 0.34 46 0 46 C-0.33 33.46 -0.66 20.92 -1 8 C-1.99 8.495 -1.99 8.495 -3 9 C-2.01 6.03 -1.02 3.06 0 0 Z " fill="#265259" transform="translate(71,148)"/>
<path d="M0 0 C1.98 0 3.96 0 6 0 C6 3.96 6 7.92 6 12 C5.01 12.33 4.02 12.66 3 13 C2.91113816 9.80097361 3.08941469 7.07322544 4 4 C2.68 3.34 1.36 2.68 0 2 C0 1.34 0 0.68 0 0 Z " fill="#44BAFD" transform="translate(252,60)"/>
<path d="M0 0 C9.9 0 19.8 0 30 0 C30 1.32 30 2.64 30 4 C29.01 3.67 28.02 3.34 27 3 C27 2.67 27 2.34 27 2 C18.09 1.67 9.18 1.34 0 1 C0 0.67 0 0.34 0 0 Z " fill="#4DB2EC" transform="translate(254,36)"/>
<path d="M0 0 C0.99 0 1.98 0 3 0 C3 0.66 3 1.32 3 2 C8.1693489 1.59443869 8.1693489 1.59443869 13 0 C13 0.66 13 1.32 13 2 C13.66 2 14.32 2 15 2 C15 1.34 15 0.68 15 0 C15.99 0.33 16.98 0.66 18 1 C18 1.66 18 2.32 18 3 C10.74 3 3.48 3 -4 3 C-2.68 2.67 -1.36 2.34 0 2 C0 1.34 0 0.68 0 0 Z " fill="#48A1DD" transform="translate(190,42)"/>
<path d="M0 0 C4.29 0 8.58 0 13 0 C11.515 1.485 11.515 1.485 10 3 C6.4375 2.625 6.4375 2.625 3 2 C2.01 2.495 2.01 2.495 1 3 C0.67 2.01 0.34 1.02 0 0 Z " fill="#45B9FD" transform="translate(236,60)"/>
<path d="M0 0 C2.64 0 5.28 0 8 0 C7.67 1.32 7.34 2.64 7 4 C4.69 3.67 2.38 3.34 0 3 C0 2.01 0 1.02 0 0 Z " fill="#4B9ED9" transform="translate(227,82)"/>
<path d="M0 0 C3 1 3 1 5 2 C5 1.34 5 0.68 5 0 C7.475 0.99 7.475 0.99 10 2 C10 2.33 10 2.66 10 3 C7.03 3 4.06 3 1 3 C0.67 2.01 0.34 1.02 0 0 Z " fill="#4EBAFA" transform="translate(254,42)"/>
</svg>
